<?xml version="1.0" encoding="utf-8"?>
<!-- Generator: Adobe Illustrator 16.0.0, SVG Export Plug-In . SVG Version: 6.00 Build 0)  -->
<!DOCTYPE svg PUBLIC "-//W3C//DTD SVG 1.1//EN" "http://www.w3.org/Graphics/SVG/1.1/DTD/svg11.dtd">
<svg version="1.1" id="Layer_1" xmlns="http://www.w3.org/2000/svg" xmlns:xlink="http://www.w3.org/1999/xlink" x="0px" y="0px"
	 width="640px" height="480px" viewBox="0 0 640 480" enable-background="new 0 0 640 480" xml:space="preserve">
<path fill="#243EDD" d="M258.449,327.763v35.752h-11.073l0.188-2.97c-0.753,1.206-1.684,2.109-2.788,2.713
	c-1.104,0.603-2.375,0.905-3.813,0.905c-1.635,0-2.99-0.289-4.068-0.863c-1.078-0.575-1.873-1.338-2.384-2.291
	c-0.512-0.951-0.83-1.942-0.957-2.977c-0.125-1.032-0.188-3.084-0.188-6.156v-24.113h10.885v24.328c0,2.784,0.086,4.437,0.256,4.959
	c0.17,0.521,0.633,0.78,1.387,0.78c0.809,0,1.289-0.271,1.442-0.808c0.151-0.54,0.228-2.272,0.228-5.2v-24.06H258.449z"/>
<path fill="#243EDD" d="M284.582,339.187h-9.645v-1.939c0-1.652-0.094-2.698-0.283-3.138c-0.188-0.441-0.66-0.661-1.415-0.661
	c-0.611,0-1.069,0.201-1.374,0.605c-0.306,0.405-0.458,1.011-0.458,1.819c0,1.096,0.075,1.899,0.229,2.411
	c0.153,0.512,0.611,1.074,1.375,1.684c0.763,0.61,2.33,1.499,4.7,2.669c3.162,1.544,5.236,2.998,6.223,4.362
	c0.988,1.365,1.482,3.351,1.482,5.955c0,2.91-0.376,5.104-1.131,6.586c-0.753,1.482-2.016,2.624-3.785,3.423
	c-1.77,0.799-3.903,1.2-6.4,1.2c-2.765,0-5.132-0.433-7.098-1.296c-1.966-0.862-3.319-2.028-4.055-3.501s-1.104-3.7-1.104-6.682
	v-1.725h9.645v2.262c0,1.923,0.121,3.173,0.364,3.747c0.243,0.575,0.723,0.861,1.442,0.861c0.771,0,1.309-0.192,1.615-0.579
	c0.305-0.386,0.458-1.198,0.458-2.438c0-1.707-0.198-2.774-0.591-3.206c-0.415-0.431-2.526-1.706-6.333-3.826
	c-3.197-1.796-5.145-3.425-5.847-4.89c-0.699-1.463-1.05-3.201-1.05-5.212c0-2.855,0.377-4.962,1.132-6.318
	c0.753-1.356,2.033-2.401,3.838-3.14c1.805-0.734,3.902-1.104,6.291-1.104c2.373,0,4.388,0.301,6.049,0.903
	c1.661,0.602,2.938,1.397,3.825,2.384c0.89,0.988,1.429,1.904,1.617,2.749c0.19,0.843,0.282,2.164,0.282,3.96V339.187z"/>
<path fill="#243EDD" d="M299.805,322.995v5.631h2.938v5.657h-2.938v19.129c0,2.353,0.122,3.664,0.364,3.934
	c0.242,0.268,1.253,0.404,3.031,0.404v5.765h-4.393c-2.479,0-4.248-0.104-5.308-0.31c-1.06-0.206-1.994-0.683-2.801-1.428
	c-0.808-0.744-1.311-1.599-1.508-2.561c-0.198-0.959-0.297-3.219-0.297-6.774v-18.159h-2.344v-5.657h2.344v-5.631H299.805z"/>
<path fill="#243EDD" d="M329.791,346.273h-14.09v7.731c0,1.616,0.116,2.657,0.35,3.124c0.232,0.468,0.684,0.701,1.347,0.701
	c0.826,0,1.379-0.311,1.656-0.929c0.278-0.62,0.419-1.82,0.419-3.598v-4.715h10.318v2.641c0,2.209-0.14,3.906-0.417,5.093
	c-0.28,1.185-0.93,2.451-1.954,3.797c-1.023,1.348-2.322,2.358-3.893,3.031c-1.573,0.675-3.543,1.013-5.914,1.013
	c-2.301,0-4.33-0.334-6.089-0.998c-1.761-0.665-3.13-1.577-4.109-2.735c-0.979-1.157-1.656-2.434-2.033-3.825
	c-0.378-1.393-0.565-3.418-0.565-6.076v-10.425c0-3.127,0.422-5.591,1.266-7.396c0.845-1.806,2.227-3.189,4.149-4.15
	c1.922-0.959,4.132-1.441,6.627-1.441c3.055,0,5.572,0.58,7.559,1.738c1.983,1.158,3.377,2.694,4.175,4.606
	c0.8,1.914,1.199,4.603,1.199,8.068V346.273z M318.879,340.452v-2.612c0-1.851-0.098-3.045-0.296-3.584
	c-0.196-0.537-0.602-0.808-1.213-0.808c-0.755,0-1.221,0.228-1.4,0.688c-0.181,0.458-0.269,1.692-0.269,3.704v2.612H318.879z"/>
<path fill="#243EDD" d="M344.231,327.763l-0.431,4.702c1.579-3.367,3.87-5.149,6.869-5.349v12.581c-1.994,0-3.459,0.271-4.392,0.81
	c-0.935,0.539-1.508,1.289-1.725,2.249c-0.215,0.961-0.322,3.176-0.322,6.641v14.118h-10.884v-35.752H344.231z"/>
<path fill="#243EDD" d="M367.966,319.896v5.524c-2.244,0-3.568,0.103-3.973,0.31c-0.404,0.206-0.607,0.795-0.607,1.765v1.132h4.58
	v5.657h-2.586v29.231h-10.885v-29.231h-2.235v-5.657h2.235c0-2.353,0.082-3.925,0.243-4.715c0.162-0.79,0.563-1.495,1.199-2.115
	c0.638-0.619,1.532-1.091,2.681-1.415c1.149-0.323,2.936-0.485,5.361-0.485H367.966z"/>
<path fill="#243EDD" d="M381.248,319.896v5.685h-11.206v-5.685H381.248z M381.248,327.763v35.752h-11.206v-35.752H381.248z"/>
<path fill="#243EDD" d="M396.04,327.763l-0.432,4.702c1.581-3.367,3.871-5.149,6.872-5.349v12.581c-1.994,0-3.459,0.271-4.393,0.81
	s-1.509,1.289-1.726,2.249c-0.214,0.961-0.322,3.176-0.322,6.641v14.118h-10.884v-35.752H396.04z"/>
<path fill="#243EDD" d="M415.653,327.763l-0.188,3.402c0.845-1.35,1.85-2.362,3.017-3.036c1.168-0.675,2.497-1.013,3.989-1.013
	c2.909,0,5.199,1.351,6.868,4.049c0.916-1.35,1.949-2.362,3.099-3.036c1.149-0.675,2.424-1.013,3.827-1.013
	c1.849,0,3.38,0.45,4.592,1.348c1.213,0.898,1.99,1.998,2.332,3.3c0.34,1.303,0.511,3.418,0.511,6.347v25.404h-10.562v-23.304
	c0-3.053-0.103-4.943-0.31-5.672s-0.688-1.091-1.442-1.091c-0.771,0-1.271,0.36-1.494,1.078c-0.226,0.718-0.338,2.612-0.338,5.685
	v23.304h-10.559v-22.711c0-3.503-0.086-5.604-0.257-6.306c-0.171-0.699-0.644-1.05-1.414-1.05c-0.485,0-0.898,0.185-1.24,0.552
	c-0.341,0.369-0.529,0.817-0.565,1.347c-0.035,0.53-0.054,1.657-0.054,3.382v24.786h-10.561v-35.752H415.653z"/>
<path fill="#243EDD" d="M457.169,341.611h-10.211v-2.396c0-2.767,0.319-4.9,0.957-6.4c0.638-1.499,1.917-2.824,3.84-3.974
	c1.92-1.149,4.418-1.725,7.49-1.725c3.681,0,6.455,0.651,8.324,1.955c1.868,1.301,2.99,2.9,3.368,4.794
	c0.376,1.896,0.565,5.797,0.565,11.707v17.942h-10.587v-3.186c-0.666,1.276-1.524,2.235-2.575,2.874
	c-1.05,0.639-2.303,0.96-3.758,0.96c-1.903,0-3.65-0.536-5.239-1.604c-1.59-1.068-2.386-3.407-2.386-7.018v-2.938
	c0-2.677,0.423-4.499,1.267-5.469c0.845-0.97,2.938-2.103,6.277-3.394c3.575-1.403,5.487-2.346,5.739-2.83
	c0.251-0.485,0.378-1.474,0.378-2.965c0-1.867-0.141-3.084-0.419-3.649s-0.74-0.849-1.387-0.849c-0.736,0-1.194,0.237-1.374,0.715
	c-0.181,0.476-0.271,1.71-0.271,3.703V341.611z M460.619,346.515c-1.744,1.274-2.753,2.345-3.031,3.206
	c-0.279,0.862-0.419,2.102-0.419,3.718c0,1.85,0.122,3.044,0.364,3.584c0.243,0.537,0.724,0.808,1.441,0.808
	c0.684,0,1.127-0.21,1.334-0.634c0.206-0.421,0.311-1.53,0.311-3.326V346.515z"/>
<path fill="#243EDD" d="M511.324,335.954H499.98v-3.96c0-2.497-0.107-4.061-0.323-4.688c-0.215-0.629-0.727-0.944-1.536-0.944
	c-0.699,0-1.176,0.271-1.428,0.81s-0.377,1.923-0.377,4.149v20.934c0,1.958,0.125,3.247,0.377,3.866
	c0.252,0.62,0.755,0.93,1.509,0.93c0.826,0,1.387-0.352,1.685-1.052c0.296-0.7,0.443-2.064,0.443-4.095v-5.174h-2.289v-6.626h13.283
	v23.411h-7.13l-1.048-3.125c-0.773,1.348-1.748,2.357-2.926,3.031c-1.177,0.673-2.565,1.01-4.164,1.01
	c-1.907,0-3.691-0.463-5.353-1.387c-1.664-0.925-2.926-2.07-3.789-3.435c-0.862-1.366-1.402-2.798-1.617-4.299
	c-0.215-1.499-0.322-3.748-0.322-6.748v-12.96c0-4.166,0.225-7.191,0.672-9.078c0.45-1.886,1.739-3.614,3.866-5.187
	c2.13-1.571,4.88-2.358,8.258-2.358c3.323,0,6.08,0.684,8.271,2.049c2.19,1.364,3.618,2.985,4.283,4.862s0.998,4.603,0.998,8.178
	V335.954z"/>
<path fill="#243EDD" d="M526.142,327.763l-0.188,3.402c0.843-1.35,1.849-2.362,3.017-3.036c1.168-0.675,2.497-1.013,3.987-1.013
	c2.91,0,5.199,1.351,6.87,4.049c0.916-1.35,1.949-2.362,3.099-3.036c1.149-0.675,2.424-1.013,3.825-1.013
	c1.851,0,3.381,0.45,4.593,1.348c1.214,0.898,1.989,1.998,2.333,3.3c0.339,1.303,0.511,3.418,0.511,6.347v25.404h-10.563v-23.304
	c0-3.053-0.102-4.943-0.311-5.672c-0.205-0.729-0.686-1.091-1.44-1.091c-0.772,0-1.271,0.36-1.494,1.078
	c-0.226,0.718-0.338,2.612-0.338,5.685v23.304h-10.559v-22.711c0-3.503-0.086-5.604-0.258-6.306c-0.172-0.699-0.643-1.05-1.413-1.05
	c-0.485,0-0.9,0.185-1.24,0.552c-0.341,0.369-0.529,0.817-0.565,1.347c-0.037,0.53-0.054,1.657-0.054,3.382v24.786h-10.561v-35.752
	H526.142z"/>
<path fill="#243EDD" d="M568.817,319.896v10.326c0.897-1.044,1.897-1.821,3.002-2.335c1.106-0.513,2.304-0.771,3.598-0.771
	c1.491,0,2.782,0.233,3.879,0.701c1.097,0.469,1.931,1.123,2.506,1.966c0.576,0.846,0.922,1.671,1.038,2.479
	c0.117,0.808,0.174,2.532,0.174,5.173v16.111c0,2.623-0.174,4.575-0.525,5.858c-0.35,1.284-1.172,2.399-2.465,3.342
	c-1.293,0.943-2.829,1.416-4.606,1.416c-1.275,0-2.466-0.281-3.569-0.838c-1.106-0.559-2.114-1.396-3.03-2.512l-0.702,2.701h-10.184
	v-43.619H568.817z M572.13,337.92c0-1.849-0.116-3.058-0.35-3.623c-0.234-0.565-0.693-0.849-1.375-0.849
	c-0.665,0-1.096,0.248-1.292,0.741c-0.198,0.493-0.296,1.736-0.296,3.73v15.412c0,1.922,0.11,3.15,0.335,3.69
	c0.225,0.537,0.671,0.808,1.334,0.808c0.683,0,1.127-0.278,1.333-0.835c0.207-0.558,0.311-1.894,0.311-4.015V337.92z"/>
<path fill="#243EDD" d="M613,319.896v43.619h-11.343v-18.321h-3.395v18.321H586.92v-43.619h11.343v15.601h3.395v-15.601H613z"/>
<polygon fill="#243EDD" points="194,364 204.216,364 204.222,353.859 206.614,351.587 208.392,364 215.424,364 218.689,339.391 
	219.373,338.829 219.385,364 230,364 230,327 222.6,327 194,356.18 "/>
<linearGradient id="SVGID_1_" gradientUnits="userSpaceOnUse" x1="184.5679" y1="187.3892" x2="184.5679" y2="302.8795">
	<stop  offset="0" style="stop-color:#0000FF"/>
	<stop  offset="1" style="stop-color:#0071BC"/>
</linearGradient>
<path fill="url(#SVGID_1_)" d="M183.561,117.707C119.964,118.689,68.511,167.771,63.655,230h59.122l61.79-61.79l52.245,52.246
	l9.348-9.347l28.232,28.233l-28.55,28.55l-9.061-9.061l-52.922,52.922L122.106,250h-58.39
	c5.191,61.882,56.47,110.59,119.811,111.582l121.954-121.955L183.561,117.707z"/>
</svg>
